<svg width="97" height="18" viewBox="0 0 97 18" fill="none" xmlns="http://www.w3.org/2000/svg">
<path d="M15.5136 0.165771V17.69H12.3133L4.68924 6.66036H4.56089V17.69H0.855804V0.165771H4.10738L11.6716 11.1869H11.8256V0.165771H15.5136Z" fill="white"/>
<path d="M24.496 17.9467C23.144 17.9467 21.9803 17.6729 21.0049 17.1253C20.0351 16.5719 19.2878 15.7904 18.763 14.7807C18.2382 13.7653 17.9758 12.5645 17.9758 11.1783C17.9758 9.82637 18.2382 8.63983 18.763 7.61872C19.2878 6.59761 20.0265 5.80183 20.9792 5.23138C21.9375 4.66093 23.0613 4.3757 24.3506 4.3757C25.2176 4.3757 26.0248 4.51546 26.7721 4.79498C27.5251 5.0688 28.1811 5.48238 28.7402 6.03572C29.3049 6.58905 29.7442 7.285 30.0579 8.12357C30.3717 8.95643 30.5285 9.9319 30.5285 11.05V12.0511H19.4304V9.79214H27.0973C27.0973 9.26732 26.9832 8.8024 26.755 8.39738C26.5268 7.99236 26.2102 7.67576 25.8052 7.44758C25.4059 7.2137 24.941 7.09676 24.4105 7.09676C23.8571 7.09676 23.3665 7.22511 22.9387 7.48181C22.5166 7.73281 22.1857 8.07223 21.9461 8.50006C21.7065 8.9222 21.5839 9.39282 21.5782 9.91193V12.0597C21.5782 12.71 21.698 13.2719 21.9375 13.7454C22.1828 14.2188 22.528 14.5839 22.9729 14.8406C23.4179 15.0973 23.9455 15.2257 24.5559 15.2257C24.9609 15.2257 25.3317 15.1686 25.6683 15.0545C26.0049 14.9405 26.2929 14.7693 26.5325 14.5411C26.7721 14.313 26.9547 14.0334 27.0802 13.7026L30.4515 13.9251C30.2804 14.7351 29.9296 15.4425 29.399 16.0471C28.8742 16.6461 28.1954 17.1139 27.3625 17.4504C26.5354 17.7813 25.5799 17.9467 24.496 17.9467Z" fill="white"/>
<path d="M35.7182 4.54684L38.1312 9.14182L40.6041 4.54684H44.3434L40.5357 11.1184L44.4461 17.69H40.7239L38.1312 13.1464L35.5813 17.69H31.8163L35.7182 11.1184L31.9532 4.54684H35.7182Z" fill="white"/>
<path d="M51.9761 17.9467C50.6298 17.9467 49.4718 17.6615 48.502 17.0911C47.538 16.5149 46.7964 15.7163 46.2773 14.6952C45.7639 13.6741 45.5072 12.4989 45.5072 11.1698C45.5072 9.82351 45.7667 8.64268 46.2858 7.62727C46.8106 6.60617 47.5551 5.81039 48.5191 5.23993C49.4832 4.66378 50.6298 4.3757 51.959 4.3757C53.1056 4.3757 54.1096 4.58392 54.971 5.00035C55.8323 5.41678 56.514 6.00149 57.016 6.75448C57.518 7.50748 57.7947 8.39168 57.846 9.40708H54.4062C54.3092 8.75106 54.0525 8.2234 53.6361 7.82408C53.2254 7.41906 52.6863 7.21655 52.0189 7.21655C51.4541 7.21655 50.9607 7.37057 50.5385 7.67861C50.1221 7.98095 49.797 8.42305 49.5631 9.00491C49.3292 9.58678 49.2122 10.2913 49.2122 11.1184C49.2122 11.957 49.3263 12.6701 49.5545 13.2576C49.7884 13.8452 50.1164 14.293 50.5385 14.601C50.9607 14.9091 51.4541 15.0631 52.0189 15.0631C52.4353 15.0631 52.8089 14.9775 53.1398 14.8064C53.4764 14.6353 53.753 14.3871 53.9698 14.062C54.1923 13.7311 54.3378 13.3346 54.4062 12.8726H57.846C57.789 13.8766 57.5152 14.7608 57.0246 15.5252C56.5397 16.2839 55.8694 16.8771 55.0137 17.305C54.1581 17.7328 53.1455 17.9467 51.9761 17.9467Z" fill="white"/>
<path d="M66.1696 17.9467C64.8176 17.9467 63.6539 17.6729 62.6785 17.1253C61.7087 16.5719 60.9614 15.7904 60.4366 14.7807C59.9118 13.7653 59.6494 12.5645 59.6494 11.1783C59.6494 9.82637 59.9118 8.63983 60.4366 7.61872C60.9614 6.59761 61.7001 5.80183 62.6528 5.23138C63.6111 4.66093 64.7349 4.3757 66.0242 4.3757C66.8912 4.3757 67.6984 4.51546 68.4457 4.79498C69.1987 5.0688 69.8547 5.48238 70.4138 6.03572C70.9785 6.58905 71.4178 7.285 71.7315 8.12357C72.0453 8.95643 72.2021 9.9319 72.2021 11.05V12.0511H61.104V9.79214H68.7709C68.7709 9.26732 68.6568 8.8024 68.4286 8.39738C68.2004 7.99236 67.8838 7.67576 67.4788 7.44758C67.0795 7.2137 66.6146 7.09676 66.0841 7.09676C65.5307 7.09676 65.0401 7.22511 64.6123 7.48181C64.1902 7.73281 63.8593 8.07223 63.6197 8.50006C63.3801 8.9222 63.2575 9.39282 63.2518 9.91193V12.0597C63.2518 12.71 63.3716 13.2719 63.6111 13.7454C63.8564 14.2188 64.2016 14.5839 64.6465 14.8406C65.0915 15.0973 65.6191 15.2257 66.2295 15.2257C66.6345 15.2257 67.0053 15.1686 67.3419 15.0545C67.6785 14.9405 67.9665 14.7693 68.2061 14.5411C68.4457 14.313 68.6283 14.0334 68.7538 13.7026L72.1251 13.9251C71.954 14.7351 71.6032 15.4425 71.0727 16.0471C70.5478 16.6461 69.869 17.1139 69.0361 17.4504C68.209 17.7813 67.2535 17.9467 66.1696 17.9467Z" fill="white"/>
<path d="M78.2261 10.0916V17.69H74.5809V4.54684H78.055V6.86572H78.209C78.4999 6.10132 78.9877 5.49664 79.6722 5.05169C80.3567 4.60103 81.1868 4.3757 82.1622 4.3757C83.0749 4.3757 83.8707 4.57536 84.5496 4.97468C85.2284 5.37399 85.7561 5.94444 86.1326 6.68603C86.5091 7.42191 86.6973 8.30041 86.6973 9.32151V17.69H83.0521V9.97183C83.0578 9.16749 82.8525 8.54 82.436 8.08934C82.0196 7.63298 81.4463 7.4048 80.7161 7.4048C80.2255 7.4048 79.792 7.51033 79.4155 7.7214C79.0447 7.93247 78.7538 8.24051 78.5427 8.64553C78.3373 9.04485 78.2318 9.52688 78.2261 10.0916Z" fill="white"/>
<path d="M96.5611 4.54684V7.285H88.6461V4.54684H96.5611ZM90.443 1.39795H94.0882V13.6512C94.0882 13.9878 94.1396 14.2502 94.2422 14.4385C94.3449 14.621 94.4875 14.7494 94.6701 14.8235C94.8583 14.8977 95.0751 14.9348 95.3204 14.9348C95.4915 14.9348 95.6627 14.9205 95.8338 14.892C96.0049 14.8577 96.1361 14.8321 96.2274 14.815L96.8007 17.5275C96.6182 17.5845 96.3615 17.6501 96.0306 17.7243C95.6997 17.8041 95.2976 17.8526 94.8241 17.8697C93.9456 17.904 93.1755 17.787 92.5138 17.5189C91.8578 17.2508 91.3472 16.8344 90.9821 16.2696C90.617 15.7049 90.4373 14.9918 90.443 14.1304V1.39795Z" fill="white"/>
</svg>
