<svg width="13" height="13" viewBox="0 0 13 13" fill="none" xmlns="http://www.w3.org/2000/svg">
<path fill-rule="evenodd" clip-rule="evenodd" d="M12.3397 6.76603C12.3397 7.16773 12.2988 7.56887 12.2185 7.95988C12.1402 8.34161 12.0241 8.71638 11.8722 9.07464C11.7237 9.42656 11.5395 9.76569 11.3243 10.082C11.1123 10.3962 10.868 10.6911 10.5997 10.9598C10.3309 11.2274 10.035 11.471 9.72091 11.6839C9.40361 11.8976 9.06399 12.0815 8.71186 12.2307C8.35309 12.3819 7.97745 12.4977 7.59605 12.5759C7.20452 12.6565 6.80192 12.6976 6.39964 12.6976C5.99706 12.6976 5.59448 12.6565 5.2035 12.5759C4.82152 12.4977 4.44591 12.3819 4.08741 12.2307C3.73531 12.0815 3.39536 11.8976 3.07806 11.6839C2.76395 11.471 2.4681 11.2274 2.19981 10.9598C1.93124 10.6911 1.68701 10.3962 1.4747 10.082C1.26064 9.76569 1.07616 9.42654 0.927092 9.07464C0.77509 8.71638 0.658799 8.34159 0.580194 7.95988C0.500729 7.56887 0.460114 7.16773 0.460114 6.76603C0.460114 6.36403 0.500706 5.96203 0.580218 5.57188C0.658822 5.19015 0.775114 4.8148 0.927115 4.45712C1.07619 4.10494 1.26067 3.76551 1.47472 3.44922C1.68703 3.1347 1.93126 2.84042 2.19983 2.57136C2.46813 2.30373 2.76397 2.06076 3.07809 1.84817C3.39539 1.63355 3.73533 1.44966 4.08744 1.3002C4.44594 1.14869 4.82152 1.03257 5.20353 0.954961C5.5945 0.87503 5.99708 0.834473 6.39966 0.834473C6.80194 0.834473 7.20452 0.87503 7.59608 0.954961C7.97748 1.03259 8.35309 1.14872 8.71189 1.3002C9.06399 1.44963 9.40364 1.63355 9.72094 1.84817C10.0351 2.06076 10.3309 2.30373 10.5998 2.57136C10.8681 2.84042 11.1123 3.1347 11.3243 3.44922C11.5395 3.76551 11.7237 4.10497 11.8722 4.45712C12.0241 4.8148 12.1402 5.19015 12.2185 5.57188C12.2988 5.96203 12.3397 6.36403 12.3397 6.76603ZM4.23531 2.18442C2.82075 2.85144 1.76499 4.15301 1.43578 5.72163C1.56951 5.72279 3.68335 5.74944 6.11884 5.10326C5.24089 3.54565 4.30289 2.27451 4.23531 2.18442ZM6.53911 5.88326C3.92728 6.66406 1.42099 6.60788 1.33109 6.60442C1.32963 6.65886 1.32702 6.71156 1.32702 6.76603C1.32702 8.06729 1.81864 9.2536 2.62671 10.1506C2.62496 10.148 4.01314 7.68877 6.75056 6.80484C6.81668 6.78283 6.88399 6.76312 6.95069 6.74402C6.82338 6.45615 6.68442 6.16767 6.53911 5.88326ZM9.74963 2.96439C8.85657 2.17804 7.68394 1.70105 6.39962 1.70105C5.98746 1.70105 5.58749 1.75087 5.20435 1.84297C5.28032 1.94493 6.23314 3.20711 7.10065 4.79771C9.01466 4.08119 9.73715 2.98291 9.74963 2.96439ZM7.29646 7.58335C7.28516 7.58709 7.27386 7.59031 7.26282 7.59435C4.2699 8.63622 3.29253 10.7359 3.28195 10.7588C4.14311 11.4275 5.22324 11.831 6.39966 11.831C7.10212 11.831 7.77125 11.6882 8.38005 11.4296C8.30493 10.987 8.01025 9.4358 7.29646 7.58335ZM9.23422 10.9668C10.3732 10.1993 11.1821 8.98052 11.4078 7.56884C11.3034 7.53525 9.88419 7.08661 8.24689 7.34874C8.91225 9.17456 9.18259 10.6615 9.23422 10.9668ZM7.49109 5.55249C7.60882 5.79404 7.72283 6.03989 7.82811 6.28697C7.86554 6.37561 7.90208 6.46251 7.93775 6.54938C9.68033 6.33041 11.3971 6.69882 11.4705 6.71386C11.4589 5.51309 11.0287 4.41105 10.317 3.54828C10.3074 3.56186 9.49385 4.73572 7.49109 5.55249Z" fill="white"/>
</svg>
